<?xml version="1.0" standalone="no"?>
<!DOCTYPE svg PUBLIC "-//W3C//DTD SVG 20010904//EN"
 "http://www.w3.org/TR/2001/REC-SVG-20010904/DTD/svg10.dtd">
<svg version="1.0" xmlns="http://www.w3.org/2000/svg"
 width="500.000000pt" height="500.000000pt" viewBox="0 0 500.000000 500.000000"
 preserveAspectRatio="xMidYMid meet">

<g transform="translate(0.000000,500.000000) scale(0.100000,-0.100000)"
fill="#000000" stroke="none">
<path d="M2885 4460 l-230 -230 230 -230 230 -230 230 230 230 230 -230 230
-230 230 -230 -230z"/>
<path d="M2305 3880 l-230 -230 125 -126 c69 -69 174 -171 233 -226 l108 -101
230 229 229 229 -227 227 c-125 126 -230 228 -233 228 -3 0 -109 -103 -235
-230z"/>
<path d="M3457 3882 l-227 -227 230 -230 229 -229 203 199 c112 109 216 211
233 227 l30 28 -230 230 c-126 127 -232 230 -235 230 -3 0 -108 -102 -233
-228z"/>
<path d="M1380 3535 l-285 -285 285 -285 c157 -157 288 -284 292 -283 4 2 136
131 293 287 l286 285 -283 283 c-155 156 -287 283 -293 283 -6 0 -138 -128
-295 -285z"/>
<path d="M2886 3311 l-230 -230 212 -219 c117 -121 219 -225 228 -233 13 -11
46 19 247 219 l232 232 -230 230 -230 230 -229 -229z"/>
<path d="M630 2785 l-285 -285 285 -285 c157 -157 287 -285 290 -284 3 0 136
128 295 284 l290 284 -285 286 c-157 157 -289 285 -295 285 -6 0 -138 -128
-295 -285z"/>
<path d="M2130 2785 l-285 -285 288 -287 287 -288 285 285 c157 157 284 288
283 292 -7 17 -551 568 -561 568 -7 0 -140 -128 -297 -285z"/>
<path d="M2882 2157 c-122 -122 -222 -227 -222 -232 0 -13 442 -455 455 -455
13 0 455 442 455 455 0 13 -443 455 -456 455 -5 0 -109 -100 -232 -223z"/>
<path d="M1380 2035 l-285 -285 288 -287 287 -288 290 290 290 290 -282 282
c-156 156 -287 283 -293 283 -6 0 -138 -128 -295 -285z"/>
<path d="M2305 1580 l-230 -230 233 -233 232 -232 230 230 230 230 -233 233
-232 232 -230 -230z"/>
<path d="M3462 1577 l-232 -232 230 -230 230 -230 233 233 232 232 -230 230
-230 230 -233 -233z"/>
<path d="M2885 1000 l-230 -230 230 -230 230 -230 230 230 230 230 -230 230
-230 230 -230 -230z"/>
</g>
</svg>
