<svg xmlns="http://www.w3.org/2000/svg" xmlns:xlink="http://www.w3.org/1999/xlink" x="0" y="0" width="783" height="302" style="
        width:783px;
        height:302px;
        background: #FFF;
        fill: none;
">
        <svg xmlns="http://www.w3.org/2000/svg"/>
        
        <svg xmlns="http://www.w3.org/2000/svg" class="role-diagram-draw-area"><g class="shapes-region" style="stroke: black; fill: none;"><g class="arrow-line"><path class="connection real" stroke-dasharray="" d="  M-199.37,301 L-109.81,300.93" style="stroke: rgb(0, 0, 0); stroke-width: 1; fill: none; fill-opacity: 1;"/><g stroke="#000" transform="matrix(-0.9999996192282494,0.0008726645152345744,-0.0008726645152345744,-0.9999996192282494,-107.80807495117188,300.9237060546875)" style="stroke: rgb(0, 0, 0); stroke-width: 1;"><path d=" M10.93,-3.29 Q4.96,-0.45 0,0 Q4.96,0.45 10.93,3.29"/></g></g><g class="composite-shape"><path class="real" d=" M-60.93,199.24 C-61.13,194.79 -60.6,192 -59.35,190.85 C-61.33,190.34 -64.02,188.17 -67.45,184.34" style="stroke-width: 1; stroke: rgb(0, 0, 0); fill: none; fill-opacity: 1;"/></g><g class="arrow-line"><path class="connection real" stroke-dasharray="" d="  M-106.67,203.98 C-67.07,174.28 -47.07,232.79 -7.86,204.86" style="stroke: rgb(0, 0, 0); stroke-width: 1; fill: none; fill-opacity: 1;"/><g stroke="#000" transform="matrix(-0.7999989281485084,0.6000014291326627,-0.6000014291326627,-0.7999989281485084,-6.668914794921875,203.9822082519531)" style="stroke: rgb(0, 0, 0); stroke-width: 1;"><path d=" M10.93,-3.29 Q4.96,-0.45 0,0 Q4.96,0.45 10.93,3.29"/></g></g><g class="composite-shape"><path class="real" d=" M-41.48,143.79 L-34.14,147.72 L-40.94,152.15" style="stroke-width: 1; stroke: rgb(0, 0, 0); fill: none; fill-opacity: 1;"/></g><g class="arrow-line"><path class="connection real" stroke-dasharray="" d="  M100.33,60.33 L166,60.33" style="stroke: rgb(0, 0, 0); stroke-width: 1; fill: none; fill-opacity: 1;"/><g stroke="#000" transform="matrix(-1,1.2246467991473532e-16,-1.2246467991473532e-16,-1,168,60.33333206176757)" style="stroke: rgb(0, 0, 0); stroke-width: 1;"><path d=" M10.93,-3.29 Q4.96,-0.45 0,0 Q4.96,0.45 10.93,3.29"/></g><g stroke="#000" transform="matrix(-1,1.2246467991473532e-16,-1.2246467991473532e-16,-1,100.3333282470703,60.33333206176758)" style="stroke: rgb(0, 0, 0); stroke-width: 1;"><path d=" M10.93,-4.9 Q4.96,-1 0,0 Q4.96,1 10.93,4.9"/></g></g><g class="arrow-line"><path class="connection real" stroke-dasharray="" d="  M77.64,79.67 L77.02,136" style="stroke: rgb(0, 0, 0); stroke-width: 1; fill: none; fill-opacity: 1;"/><g stroke="#000" transform="matrix(0.010995352723218242,-0.9999395492821014,0.9999395492821014,0.010995352723218242,77,137.99999713897705)" style="stroke: rgb(0, 0, 0); stroke-width: 1;"><path d=" M10.93,-3.29 Q4.96,-0.45 0,0 Q4.96,0.45 10.93,3.29"/></g><g stroke="#000" transform="matrix(0.010995352723218242,-0.9999395492821014,0.9999395492821014,0.010995352723218242,77.64457348154173,79.66655348050107)" style="stroke: rgb(0, 0, 0); stroke-width: 1;"><path d=" M10.93,-4.9 Q4.96,-1 0,0 Q4.96,1 10.93,4.9"/></g></g><g class="arrow-line"><path class="connection real" stroke-dasharray="" d="  M78,151.33 L77.33,202.33" style="stroke: rgb(0, 0, 0); stroke-width: 1; fill: none; fill-opacity: 1;"/></g><g class="arrow-line"><path class="connection real" stroke-dasharray="" d="  M77.33,202.33 L301,202" style="stroke: rgb(0, 0, 0); stroke-width: 1; fill: none; fill-opacity: 1;"/></g><g class="arrow-line"><path class="connection real" stroke-dasharray="" d="  M96.67,146 L175.33,146" style="stroke: rgb(0, 0, 0); stroke-width: 1; fill: none; fill-opacity: 1;"/><g stroke="#000" transform="matrix(-1,1.2246467991473532e-16,-1.2246467991473532e-16,-1,177.33333206176755,146.00000000000003)" style="stroke: rgb(0, 0, 0); stroke-width: 1;"><path d=" M10.93,-3.29 Q4.96,-0.45 0,0 Q4.96,0.45 10.93,3.29"/></g></g><g class="arrow-line"><path class="connection real" stroke-dasharray="" d="  M188.33,80 L188.33,132.67" style="stroke: rgb(0, 0, 0); stroke-width: 1; fill: none; fill-opacity: 1;"/><g stroke="#000" transform="matrix(-1.8369701987210297e-16,-1,1,-1.8369701987210297e-16,188.33334350585938,134.66667556762692)" style="stroke: rgb(0, 0, 0); stroke-width: 1;"><path d=" M10.93,-3.29 Q4.96,-0.45 0,0 Q4.96,0.45 10.93,3.29"/></g><g stroke="#000" transform="matrix(-1.8369701987210297e-16,-1,1,-1.8369701987210297e-16,188.33335822610331,79.99996948242179)" style="stroke: rgb(0, 0, 0); stroke-width: 1;"><path d=" M10.93,-4.9 Q4.96,-1 0,0 Q4.96,1 10.93,4.9"/></g></g><g class="arrow-line"><path class="connection real" stroke-dasharray="6 6" d="  M218.33,146.33 L291.33,146.33" style="stroke: rgb(0, 0, 0); stroke-width: 1; fill: none; fill-opacity: 1;"/><g stroke="#000" transform="matrix(-1,1.2246467991473532e-16,-1.2246467991473532e-16,-1,293.3333435058594,146.3333320617676)" style="stroke: rgb(0, 0, 0); stroke-width: 1;"><path d=" M10.93,-3.29 Q4.96,-0.45 0,0 Q4.96,0.45 10.93,3.29"/></g></g><g class="arrow-line"><path class="connection real" stroke-dasharray="" d="  M199,58 L292.46,135.06" style="stroke: rgb(0, 0, 0); stroke-width: 1; fill: none; fill-opacity: 1;"/><g stroke="#000" transform="matrix(-0.7715135550433286,-0.6362128844847491,0.6362128844847491,-0.7715135550433286,294,136.33333778381348)" style="stroke: rgb(0, 0, 0); stroke-width: 1;"><path d=" M10.93,-3.29 Q4.96,-0.45 0,0 Q4.96,0.45 10.93,3.29"/></g></g><g class="arrow-line"><path class="connection real" stroke-dasharray="" d="  M301,202 L302.28,156.67" style="stroke: rgb(0, 0, 0); stroke-width: 1; fill: none; fill-opacity: 1;"/><g stroke="#000" transform="matrix(-0.02809610317484891,0.9996052265701637,-0.9996052265701637,-0.02809610317484891,302.33333587646484,154.6666660308838)" style="stroke: rgb(0, 0, 0); stroke-width: 1;"><path d=" M10.93,-3.29 Q4.96,-0.45 0,0 Q4.96,0.45 10.93,3.29"/></g></g><g/></g><g/><g/><g/></svg>
        <svg xmlns="http://www.w3.org/2000/svg" xmlns:xlink="http://www.w3.org/1999/xlink" width="781" height="300" style="width:781px;height:300px;font-family:Asana-Math, Asana;background:#FFF;"><g><g><g><g transform="matrix(1,0,0,1,-171.5052146911621,207.5625)"><path transform="matrix(0.017,0,0,-0.017,0,0)" d="M345 437L329 437L350 549C366 635 394 673 440 673C470 673 497 658 512 634L522 638C527 654 537 685 545 705L550 720C534 727 503 733 480 733C469 733 453 730 445 726C421 715 339 654 316 630C294 608 282 578 271 521L256 442C215 422 195 414 170 405L165 383L246 383L237 327C207 132 170 -54 148 -123C130 -182 100 -213 64 -213C41 -213 30 -206 12 -184L-2 -188C-6 -211 -20 -259 -25 -268C-16 -273 -1 -276 10 -276C51 -276 105 -245 144 -198C215 -114 235 -18 319 383L423 383C427 402 434 425 440 439L436 446C407 439 408 437 345 437ZM559 1C574 -7 590 -11 602 -11C635 -11 674 18 705 65L781 182L792 113C805 28 828 -11 864 -11C886 -11 918 6 950 35L999 79L990 98C954 68 929 53 913 53C898 53 885 63 875 83C866 102 855 139 850 168L832 269L867 318C914 383 941 406 972 406C988 406 1000 398 1005 383L1019 387L1034 472C1022 479 1013 482 1004 482C964 482 924 446 862 354L825 299L819 347C807 446 780 482 721 482C695 482 673 474 664 461L606 378L623 368C653 402 673 416 692 416C725 416 747 375 764 277L775 215L735 153C692 86 658 54 630 54C615 54 604 58 602 63L591 91L571 88C571 53 563 27 559 1Z" stroke="rgb(0,0,0)" stroke-opacity="1" stroke-width="8" fill="rgb(0,0,0)" fill-opacity="1"></path></g></g></g></g><g transform="matrix(0.9994731190610087,-0.03245742248637159,0.03245742248637159,0.9994731190610087,-13.05422080201032,-2.720174469823746)"><g></g></g><g><g><g><g transform="matrix(1,0,0,1,69.66666793823242,63.666656494140625)"><path transform="matrix(0.017,0,0,-0.017,0,0)" d="M567 55C567 39 552 30 524 28L480 25L480 -3C582 0 582 0 602 0C622 0 622 0 724 -3L724 25L698 28C651 35 650 35 642 80L555 705L509 705L136 112C100 56 82 40 48 32L28 27L28 -3C120 0 120 0 140 0C159 0 161 0 247 -3L247 25L195 28C179 29 164 38 164 47C164 55 171 69 190 102L292 277L538 277L563 89L563 86C563 84 567 69 567 55ZM496 601L533 313L317 313Z" stroke="rgb(0,0,0)" stroke-opacity="1" stroke-width="8" fill="rgb(0,0,0)" fill-opacity="1"></path></g></g></g></g><g><g><g><g transform="matrix(1,0,0,1,117.33333206176758,51.328125)"><path transform="matrix(0.017,0,0,-0.017,0,0)" d="M194 351L94 -144C83 -196 65 -231 47 -231C33 -231 15 -225 -6 -212L-14 -269C-4 -274 9 -276 24 -276C64 -276 104 -233 140 -152C160 -107 174 -57 202 70L278 420C282 438 284 451 284 457C284 473 275 482 259 482C237 482 200 461 125 408L97 388L104 368L136 389C173 412 176 414 183 414C193 414 201 404 201 391C201 382 194 356 194 351ZM285 712C256 712 227 679 227 645C227 620 242 604 266 604C297 604 321 633 321 671C321 695 306 712 285 712Z" stroke="rgb(0,0,0)" stroke-opacity="1" stroke-width="8" fill="rgb(0,0,0)" fill-opacity="1"></path></g></g></g></g><g><g><g><g transform="matrix(1,0,0,1,181.32812881469727,63.328125)"><path transform="matrix(0.017,0,0,-0.017,0,0)" d="M416 25L416 -3C464 -1 509 0 551 0C591 0 636 -1 684 -3L684 25L659 27C618 30 605 37 591 61L420 368L641 620C671 653 680 659 706 662L734 664L734 692L620 689C608 689 594 689 505 692L505 664L538 662C570 660 583 655 583 643C583 632 578 623 560 601L399 405L295 604C286 622 281 634 281 642C281 654 294 660 324 662L361 664L361 692L315 691C274 690 244 689 228 689C211 689 181 690 140 691L95 692L95 664L121 662C170 657 182 650 202 613L348 343L110 61C95 43 72 31 48 28L20 25L20 -3C69 -1 110 0 145 0C181 0 221 -1 264 -3L264 25L232 28C194 32 177 38 177 50C177 58 181 67 187 75L369 306L488 80C497 62 502 49 502 40C502 32 495 29 470 29L454 28Z" stroke="rgb(0,0,0)" stroke-opacity="1" stroke-width="8" fill="rgb(0,0,0)" fill-opacity="1"></path></g></g></g></g><g><g><g><g transform="matrix(1,0,0,1,32.000003814697266,99.99478149414062)"><path transform="matrix(0.017,0,0,-0.017,0,0)" d="M567 55C567 39 552 30 524 28L480 25L480 -3C582 0 582 0 602 0C622 0 622 0 724 -3L724 25L698 28C651 35 650 35 642 80L555 705L509 705L136 112C100 56 82 40 48 32L28 27L28 -3C120 0 120 0 140 0C159 0 161 0 247 -3L247 25L195 28C179 29 164 38 164 47C164 55 171 69 190 102L292 277L538 277L563 89L563 86C563 84 567 69 567 55ZM496 601L533 313L317 313Z" stroke="rgb(0,0,0)" stroke-opacity="1" stroke-width="8" fill="rgb(0,0,0)" fill-opacity="1"></path></g></g><g><g transform="matrix(1,0,0,1,48.16666793823242,99.99478149414062)"><path transform="matrix(0.017,0,0,-0.017,0,0)" d="M611 37L376 271L611 505L568 547L335 313L101 547L59 505L293 271L59 37L101 -5L335 229L568 -5Z" stroke="rgb(0,0,0)" stroke-opacity="1" stroke-width="8" fill="rgb(0,0,0)" fill-opacity="1"></path></g></g><g><g transform="matrix(1,0,0,1,62.921878814697266,99.99478149414062)"><path transform="matrix(0.017,0,0,-0.017,0,0)" d="M263 689C108 689 29 566 29 324C29 207 50 106 85 57C120 8 176 -20 238 -20C389 -20 465 110 465 366C465 585 400 689 263 689ZM245 654C342 654 381 556 381 316C381 103 343 15 251 15C154 15 113 116 113 360C113 571 150 654 245 654Z" stroke="rgb(0,0,0)" stroke-opacity="1" stroke-width="8" fill="rgb(0,0,0)" fill-opacity="1"></path></g></g></g></g><g><g><g><g transform="matrix(1,0,0,1,58.99479293823242,150.33334350585938)"><path transform="matrix(0.017,0,0,-0.017,0,0)" d="M567 55C567 39 552 30 524 28L480 25L480 -3C582 0 582 0 602 0C622 0 622 0 724 -3L724 25L698 28C651 35 650 35 642 80L555 705L509 705L136 112C100 56 82 40 48 32L28 27L28 -3C120 0 120 0 140 0C159 0 161 0 247 -3L247 25L195 28C179 29 164 38 164 47C164 55 171 69 190 102L292 277L538 277L563 89L563 86C563 84 567 69 567 55ZM496 601L533 313L317 313Z" stroke="rgb(0,0,0)" stroke-opacity="1" stroke-width="8" fill="rgb(0,0,0)" fill-opacity="1"></path></g></g><g><g transform="matrix(1,0,0,1,75.16145706176758,150.33334350585938)"><path transform="matrix(0.017,0,0,-0.017,0,0)" d="M611 37L376 271L611 505L568 547L335 313L101 547L59 505L293 271L59 37L101 -5L335 229L568 -5Z" stroke="rgb(0,0,0)" stroke-opacity="1" stroke-width="8" fill="rgb(0,0,0)" fill-opacity="1"></path></g></g><g><g transform="matrix(1,0,0,1,89.91667556762695,150.33334350585938)"><path transform="matrix(0.017,0,0,-0.017,0,0)" d="M103 664L150 662C174 661 185 653 185 636C185 629 179 576 176 559L104 125C89 36 86 31 46 28L10 25L7 -3L39 -3L133 0L227 -3L259 -3L262 25L210 28C184 30 174 37 174 57C174 63 175 74 176 78L265 613C272 652 277 657 316 661L351 664L354 692L248 689C231 689 213 689 170 690L106 692Z" stroke="rgb(0,0,0)" stroke-opacity="1" stroke-width="8" fill="rgb(0,0,0)" fill-opacity="1"></path></g></g></g></g><g><g><g><g transform="matrix(1,0,0,1,179.66667556762695,150)"><path transform="matrix(0.017,0,0,-0.017,0,0)" d="M416 25L416 -3C464 -1 509 0 551 0C591 0 636 -1 684 -3L684 25L659 27C618 30 605 37 591 61L420 368L641 620C671 653 680 659 706 662L734 664L734 692L620 689C608 689 594 689 505 692L505 664L538 662C570 660 583 655 583 643C583 632 578 623 560 601L399 405L295 604C286 622 281 634 281 642C281 654 294 660 324 662L361 664L361 692L315 691C274 690 244 689 228 689C211 689 181 690 140 691L95 692L95 664L121 662C170 657 182 650 202 613L348 343L110 61C95 43 72 31 48 28L20 25L20 -3C69 -1 110 0 145 0C181 0 221 -1 264 -3L264 25L232 28C194 32 177 38 177 50C177 58 181 67 187 75L369 306L488 80C497 62 502 49 502 40C502 32 495 29 470 29L454 28Z" stroke="rgb(0,0,0)" stroke-opacity="1" stroke-width="8" fill="rgb(0,0,0)" fill-opacity="1"></path></g></g><g><g transform="matrix(1,0,0,1,195.32292556762695,150)"><path transform="matrix(0.017,0,0,-0.017,0,0)" d="M611 37L376 271L611 505L568 547L335 313L101 547L59 505L293 271L59 37L101 -5L335 229L568 -5Z" stroke="rgb(0,0,0)" stroke-opacity="1" stroke-width="8" fill="rgb(0,0,0)" fill-opacity="1"></path></g></g><g><g transform="matrix(1,0,0,1,210.07814407348633,150)"><path transform="matrix(0.017,0,0,-0.017,0,0)" d="M103 664L150 662C174 661 185 653 185 636C185 629 179 576 176 559L104 125C89 36 86 31 46 28L10 25L7 -3L39 -3L133 0L227 -3L259 -3L262 25L210 28C184 30 174 37 174 57C174 63 175 74 176 78L265 613C272 652 277 657 316 661L351 664L354 692L248 689C231 689 213 689 170 690L106 692Z" stroke="rgb(0,0,0)" stroke-opacity="1" stroke-width="8" fill="rgb(0,0,0)" fill-opacity="1"></path></g></g></g></g><g><g></g></g><g><g><g><g transform="matrix(1,0,0,1,116.33333206176758,140.66146850585938)"><path transform="matrix(0.017,0,0,-0.017,0,0)" d="M194 351L94 -144C83 -196 65 -231 47 -231C33 -231 15 -225 -6 -212L-14 -269C-4 -274 9 -276 24 -276C64 -276 104 -233 140 -152C160 -107 174 -57 202 70L278 420C282 438 284 451 284 457C284 473 275 482 259 482C237 482 200 461 125 408L97 388L104 368L136 389C173 412 176 414 183 414C193 414 201 404 201 391C201 382 194 356 194 351ZM285 712C256 712 227 679 227 645C227 620 242 604 266 604C297 604 321 633 321 671C321 695 306 712 285 712Z" stroke="rgb(0,0,0)" stroke-opacity="1" stroke-width="8" fill="rgb(0,0,0)" fill-opacity="1"></path></g></g><g><g transform="matrix(1,0,0,1,125.29167556762695,140.66146850585938)"><path transform="matrix(0.017,0,0,-0.017,0,0)" d="M611 37L376 271L611 505L568 547L335 313L101 547L59 505L293 271L59 37L101 -5L335 229L568 -5Z" stroke="rgb(0,0,0)" stroke-opacity="1" stroke-width="8" fill="rgb(0,0,0)" fill-opacity="1"></path></g></g><g><g transform="matrix(1,0,0,1,140.04687881469727,140.66146850585938)"><path transform="matrix(0.017,0,0,-0.017,0,0)" d="M103 664L150 662C174 661 185 653 185 636C185 629 179 576 176 559L104 125C89 36 86 31 46 28L10 25L7 -3L39 -3L133 0L227 -3L259 -3L262 25L210 28C184 30 174 37 174 57C174 63 175 74 176 78L265 613C272 652 277 657 316 661L351 664L354 692L248 689C231 689 213 689 170 690L106 692Z" stroke="rgb(0,0,0)" stroke-opacity="1" stroke-width="8" fill="rgb(0,0,0)" fill-opacity="1"></path></g></g></g></g><g><g><g><g transform="matrix(1,0,0,1,145.33333206176758,104)"><path transform="matrix(0.017,0,0,-0.017,0,0)" d="M416 25L416 -3C464 -1 509 0 551 0C591 0 636 -1 684 -3L684 25L659 27C618 30 605 37 591 61L420 368L641 620C671 653 680 659 706 662L734 664L734 692L620 689C608 689 594 689 505 692L505 664L538 662C570 660 583 655 583 643C583 632 578 623 560 601L399 405L295 604C286 622 281 634 281 642C281 654 294 660 324 662L361 664L361 692L315 691C274 690 244 689 228 689C211 689 181 690 140 691L95 692L95 664L121 662C170 657 182 650 202 613L348 343L110 61C95 43 72 31 48 28L20 25L20 -3C69 -1 110 0 145 0C181 0 221 -1 264 -3L264 25L232 28C194 32 177 38 177 50C177 58 181 67 187 75L369 306L488 80C497 62 502 49 502 40C502 32 495 29 470 29L454 28Z" stroke="rgb(0,0,0)" stroke-opacity="1" stroke-width="8" fill="rgb(0,0,0)" fill-opacity="1"></path></g></g><g><g transform="matrix(1,0,0,1,160.98958206176758,104)"><path transform="matrix(0.017,0,0,-0.017,0,0)" d="M611 37L376 271L611 505L568 547L335 313L101 547L59 505L293 271L59 37L101 -5L335 229L568 -5Z" stroke="rgb(0,0,0)" stroke-opacity="1" stroke-width="8" fill="rgb(0,0,0)" fill-opacity="1"></path></g></g><g><g transform="matrix(1,0,0,1,175.74480056762695,104)"><path transform="matrix(0.017,0,0,-0.017,0,0)" d="M263 689C108 689 29 566 29 324C29 207 50 106 85 57C120 8 176 -20 238 -20C389 -20 465 110 465 366C465 585 400 689 263 689ZM245 654C342 654 381 556 381 316C381 103 343 15 251 15C154 15 113 116 113 360C113 571 150 654 245 654Z" stroke="rgb(0,0,0)" stroke-opacity="1" stroke-width="8" fill="rgb(0,0,0)" fill-opacity="1"></path></g></g></g></g><g><g><g><g transform="matrix(1,0,0,1,300.0000190734863,149.33334350585938)"><path transform="matrix(0.017,0,0,-0.017,0,0)" d="M20 -3C116 -1 174 0 261 0C339 0 456 -1 517 -2L583 -3C585 38 593 95 606 164L580 164L573 142L541 52C496 43 458 39 414 39L133 39L637 672L637 692L475 689L449 689L120 692C120 645 117 606 109 533L135 533C138 555 144 580 156 619L162 639C218 649 256 652 342 652L522 652L20 19Z" stroke="rgb(0,0,0)" stroke-opacity="1" stroke-width="8" fill="rgb(0,0,0)" fill-opacity="1"></path></g></g></g></g><g><g><g><g transform="matrix(1,0,0,1,251.00001907348633,91.66665649414062)"><path transform="matrix(0.017,0,0,-0.017,0,0)" d="M275 482C208 482 55 419 55 259C55 182 100 136 177 136C185 136 196 136 207 137L166 99C150 84 139 66 139 52C139 42 146 31 160 19C91 -4 -37 -48 -37 -159C-37 -230 33 -276 142 -276C271 -276 384 -204 384 -121C384 -85 363 -49 320 -14L260 35C226 62 213 81 213 100C213 114 228 128 240 146C338 170 409 253 409 342C409 357 406 376 405 380C422 378 430 378 439 378C456 378 466 379 489 382L498 427L495 433C467 426 447 424 393 424C393 425 369 482 275 482ZM176 1L253 -58C299 -94 318 -121 318 -154C318 -206 249 -248 166 -248C84 -248 27 -206 27 -145C27 -43 137 -11 176 1ZM250 448C308 448 337 412 337 341C337 238 289 168 219 168C158 168 126 209 126 288C126 383 177 448 250 448Z" stroke="rgb(0,0,0)" stroke-opacity="1" stroke-width="8" fill="rgb(0,0,0)" fill-opacity="1"></path></g></g></g></g><g><g><g><g transform="matrix(1,0,0,1,92.72917556762695,485.3333435058594)"><path transform="matrix(0.017,0,0,-0.017,0,0)" d="M324 -169L45 714L-9 714L269 -169Z" stroke="rgb(0,0,0)" stroke-opacity="1" stroke-width="8" fill="rgb(0,0,0)" fill-opacity="1"></path></g></g><g><g transform="matrix(1,0,0,1,100.98958206176758,485.3333435058594)"><path transform="matrix(0.017,0,0,-0.017,0,0)" d="M235 722L223 733C171 707 135 698 63 691L59 670L107 670C131 670 141 663 141 646C141 639 140 628 139 622L38 71C37 68 37 64 37 61C37 22 85 -11 140 -11C177 -11 228 8 271 39C367 107 433 244 433 376C433 414 424 453 412 468C405 477 392 482 377 482C353 482 323 474 295 460C244 433 211 403 149 324ZM322 424C348 424 361 401 361 352C361 288 340 202 310 137C277 68 237 36 183 36C137 36 112 59 112 101C112 135 127 276 208 361C241 395 293 424 322 424ZM733 204L704 77C700 60 698 42 698 26C698 4 707 -9 722 -9C745 -9 786 17 868 85L861 106C837 86 808 59 786 59C777 59 771 68 771 82C771 87 771 90 772 93L864 472L854 481L821 463C780 478 763 482 736 482C708 482 688 477 661 464C599 433 566 403 541 354C497 265 466 145 466 67C466 23 481 -11 500 -11C537 -11 617 41 733 204ZM781 414C759 305 740 253 706 201C649 117 588 59 556 59C544 59 538 72 538 99C538 163 566 280 601 360C625 415 648 433 696 433C719 433 737 429 781 414ZM1273 365C1276 403 1281 435 1289 476C1278 481 1274 482 1269 482C1238 482 1207 458 1171 407C1132 351 1093 291 1077 256L1109 408C1113 425 1115 438 1115 450C1115 470 1107 482 1092 482C1071 482 1033 461 959 408L931 388L938 368L970 389C998 407 1009 412 1018 412C1028 412 1035 403 1035 390C1035 332 992 126 952 -2L962 -9C977 -4 993 -1 1016 4L1029 6L1055 126C1073 209 1096 262 1140 319C1174 363 1201 384 1223 384C1238 384 1248 379 1259 365Z" stroke="rgb(0,0,0)" stroke-opacity="1" stroke-width="8" fill="rgb(0,0,0)" fill-opacity="1"></path></g></g><g><g transform="matrix(1,0,0,1,122.97395706176758,485.3333435058594)"><path transform="matrix(0.017,0,0,-0.017,0,0)" d="M289 -175C226 -161 206 -117 206 -45L206 128C206 207 197 253 125 272L125 274C194 292 206 335 206 409L206 595C206 667 224 707 289 726C189 726 134 703 134 578L134 392C134 327 120 292 58 273C124 254 134 223 134 151L134 -17C134 -149 176 -175 289 -175Z" stroke="rgb(0,0,0)" stroke-opacity="1" stroke-width="8" fill="rgb(0,0,0)" fill-opacity="1"></path></g></g><g><g transform="matrix(1,0,0,1,129.46875381469727,485.3333435058594)"><path transform="matrix(0.017,0,0,-0.017,0,0)" d="M434 653C511 653 565 639 621 603L621 519L648 519C653 576 661 619 675 665C592 695 535 706 466 706C374 706 301 683 229 632C112 548 50 424 50 274C50 87 159 -18 355 -18C412 -21 559 6 608 37C628 193 632 216 633 219C635 228 647 238 660 240L692 246L694 274C655 270 620 269 569 269C518 269 482 270 440 274L435 246L469 244C544 240 553 236 553 212C553 197 533 84 528 60C483 36 444 27 390 27C224 27 138 120 138 297C138 443 197 653 434 653Z" stroke="rgb(0,0,0)" stroke-opacity="1" stroke-width="8" fill="rgb(0,0,0)" fill-opacity="1"></path></g></g><g><g transform="matrix(1,0,0,1,142.57812881469727,485.3333435058594)"><path transform="matrix(0.017,0,0,-0.017,0,0)" d="M275 273C213 292 199 327 199 392L199 578C199 703 144 726 44 726C109 707 127 667 127 595L127 409C127 335 139 292 208 274L208 272C136 253 127 207 127 128L127 -45C127 -117 107 -161 44 -175C157 -175 199 -149 199 -17L199 151C199 223 209 254 275 273Z" stroke="rgb(0,0,0)" stroke-opacity="1" stroke-width="8" fill="rgb(0,0,0)" fill-opacity="1"></path></g></g></g></g><g><g><g><g><g><g><g transform="matrix(1,0,0,1,238.51564407348633,140.66665649414062)"><path transform="matrix(0.017,0,0,-0.017,0,0)" d="M434 653C511 653 565 639 621 603L621 519L648 519C653 576 661 619 675 665C592 695 535 706 466 706C374 706 301 683 229 632C112 548 50 424 50 274C50 87 159 -18 355 -18C412 -21 559 6 608 37C628 193 632 216 633 219C635 228 647 238 660 240L692 246L694 274C655 270 620 269 569 269C518 269 482 270 440 274L435 246L469 244C544 240 553 236 553 212C553 197 533 84 528 60C483 36 444 27 390 27C224 27 138 120 138 297C138 443 197 653 434 653Z" stroke="rgb(0,0,0)" stroke-opacity="1" stroke-width="8" fill="rgb(0,0,0)" fill-opacity="1"></path></g></g></g></g><svg xmlns="http://www.w3.org/2000/svg" x="238.51564407348633" y="121.66665649414062" height="6" width="12.260416984558105"><defs><clipPath id="ccp0.13235107224287268"><rect x="-0.5" y="-0.5" width="12.760416984558105" height="6.5"></rect></clipPath></defs><g clip-path="url(#ccp0.13235107224287268)"><svg xmlns="http://www.w3.org/2000/svg" x="0" y="0" height="20.33333396911621" width="17.00520896911621"><defs><clipPath id="ccp0.4505919574246724"><rect x="-0.5" y="-0.5" width="17.50520896911621" height="20.83333396911621"></rect></clipPath></defs><g clip-path="url(#ccp0.4505919574246724)"><g><g transform="matrix(1,0,0,1,0,17)"><path transform="matrix(0.017,0,0,-0.017,0,0)" d="M-877 790L1877 790L1877 850L-877 850Z" stroke="rgb(0,0,0)" stroke-opacity="1" stroke-width="8" fill="rgb(0,0,0)" fill-opacity="1"></path></g></g></g></svg></g></svg></g></g></g><g><g><g><g transform="matrix(1,0,0,1,177.33333206176758,218.33334350585938)"><path transform="matrix(0.017,0,0,-0.017,0,0)" d="M434 653C511 653 565 639 621 603L621 519L648 519C653 576 661 619 675 665C592 695 535 706 466 706C374 706 301 683 229 632C112 548 50 424 50 274C50 87 159 -18 355 -18C412 -21 559 6 608 37C628 193 632 216 633 219C635 228 647 238 660 240L692 246L694 274C655 270 620 269 569 269C518 269 482 270 440 274L435 246L469 244C544 240 553 236 553 212C553 197 533 84 528 60C483 36 444 27 390 27C224 27 138 120 138 297C138 443 197 653 434 653Z" stroke="rgb(0,0,0)" stroke-opacity="1" stroke-width="8" fill="rgb(0,0,0)" fill-opacity="1"></path></g></g></g></g></svg>
</svg>
